<svg width="62" height="62" viewBox="0 0 62 62" fill="none" xmlns="http://www.w3.org/2000/svg">
<mask id="mask0_0_17" style="mask-type:alpha" maskUnits="userSpaceOnUse" x="0" y="0" width="62" height="62">
<rect x="0.5" y="0.5" width="61" height="61" fill="#D9D9D9" stroke="url(#paint0_linear_0_17)"/>
</mask>
<g mask="url(#mask0_0_17)">
<path d="M33.1547 45.5547C32.5328 46.1766 31.7717 46.4875 30.8708 46.4875C29.9699 46.4875 29.2088 46.1766 28.5869 45.5547C27.965 44.9328 27.6541 44.1718 27.6541 43.2708C27.6541 42.3699 27.965 41.6089 28.5869 40.987C29.2088 40.3651 29.9699 40.0542 30.8708 40.0542C31.7717 40.0542 32.5328 40.3651 33.1547 40.987C33.7766 41.6089 34.0875 42.3699 34.0875 43.2708C34.0875 44.1718 33.7766 44.9328 33.1547 45.5547ZM33.3125 36.5417H28.5583C28.5591 34.2665 28.7745 32.7018 29.2028 31.8452C29.4173 31.4162 29.8147 30.8844 30.3956 30.2496C30.9765 29.615 31.7403 28.878 32.6872 28.0387C33.463 27.3922 34.1096 26.6918 34.6269 25.9373C35.1449 25.1819 35.4041 24.3721 35.4041 23.5083C35.4041 22.6006 35.0582 21.7689 34.3675 21.0134C33.6755 20.2566 32.6383 19.8792 31.2583 19.8792C29.7058 19.8792 28.55 20.3321 27.7935 21.2399C27.0437 22.1397 26.5594 22.9764 26.3417 23.75L22.1031 22.0802C22.7058 20.279 23.7688 18.7346 25.2924 17.4471C26.8181 16.1577 28.8064 15.5125 31.2583 15.5125C33.667 15.5125 35.7526 16.1577 37.5155 17.4476C39.2772 18.7366 40.1583 20.5841 40.1583 22.9917C40.1583 24.4106 39.8358 25.6245 39.1915 26.6339C38.5463 27.6447 37.6644 28.7096 36.5454 29.8285C35.0386 31.2493 34.1217 32.3704 33.7977 33.1913C33.4749 34.009 33.3134 35.126 33.3125 36.5417ZM31 56.8208C27.428 56.8208 24.0713 56.143 20.9299 54.7875C17.7882 53.4318 15.0556 51.5921 12.7317 49.2683C10.4079 46.9444 8.56813 44.2117 7.21248 41.0701C5.85693 37.9286 5.17913 34.572 5.17913 31C5.17913 27.428 5.85693 24.0714 7.21248 20.93C8.56813 17.7883 10.4079 15.0556 12.7317 12.7318C15.0556 10.4079 17.7882 8.56817 20.9299 7.21252C24.0713 5.85698 27.428 5.17917 31 5.17917C34.5719 5.17917 37.9286 5.85698 41.07 7.21252C44.2117 8.56817 46.9444 10.4079 49.2682 12.7318C51.592 15.0556 53.4318 17.7883 54.7874 20.93C56.143 24.0714 56.8208 27.428 56.8208 31C56.8208 34.572 56.143 37.9286 54.7874 41.0701C53.4318 44.2117 51.592 46.9444 49.2682 49.2683C46.9444 51.5921 44.2117 53.4318 41.07 54.7875C37.9286 56.143 34.5719 56.8208 31 56.8208ZM31 51.6792C36.7726 51.6792 41.6627 49.6758 45.6692 45.6693C49.6758 41.6627 51.6791 36.7727 51.6791 31C51.6791 25.2273 49.6758 20.3373 45.6692 16.3308C41.6627 12.3242 36.7726 10.3208 31 10.3208C25.2273 10.3208 20.3373 12.3242 16.3307 16.3308C12.3241 20.3373 10.3208 25.2273 10.3208 31C10.3208 36.7727 12.3241 41.6627 16.3307 45.6693C20.3373 49.6758 25.2273 51.6792 31 51.6792Z" fill="url(#paint1_linear_0_17)" stroke="url(#paint2_linear_0_17)" stroke-width="0.025"/>
</g>
<defs>
<linearGradient id="paint0_linear_0_17" x1="31" y1="0" x2="31" y2="62" gradientUnits="userSpaceOnUse">
<stop stop-color="#16FF9D"/>
<stop offset="1" stop-color="#3DF74F"/>
</linearGradient>
<linearGradient id="paint1_linear_0_17" x1="31" y1="5.16667" x2="31" y2="56.8333" gradientUnits="userSpaceOnUse">
<stop stop-color="#16FF9D"/>
<stop offset="1" stop-color="#3DF74F"/>
</linearGradient>
<linearGradient id="paint2_linear_0_17" x1="31" y1="5.16667" x2="31" y2="56.8333" gradientUnits="userSpaceOnUse">
<stop stop-color="#16FF9D"/>
<stop offset="1" stop-color="#3DF74F"/>
</linearGradient>
</defs>
</svg>
