<svg width="62" height="62" viewBox="0 0 62 62" fill="none" xmlns="http://www.w3.org/2000/svg">
<mask id="mask0_0_20" style="mask-type:alpha" maskUnits="userSpaceOnUse" x="0" y="0" width="62" height="62">
<rect x="0.5" y="0.5" width="61" height="61" fill="#D9D9D9" stroke="url(#paint0_linear_0_20)"/>
</mask>
<g mask="url(#mask0_0_20)">
<path d="M30.9899 51.5448L31.0001 51.5589L31.0102 51.5448C32.1301 49.9943 33.0992 48.3791 33.9176 46.6992C34.736 45.0193 35.4036 43.2318 35.9205 41.3366L35.9248 41.3208H35.9084H26.0917H26.0754L26.0797 41.3366C26.5965 43.2318 27.2642 45.0193 28.0826 46.6992C28.901 48.3791 29.8701 49.9943 30.9899 51.5448ZM24.2796 50.5161L24.3094 50.5256L24.2944 50.4982C23.5197 49.0779 22.8418 47.6037 22.2607 46.0758C21.6797 44.5478 21.1955 42.9661 20.8081 41.3305L20.8058 41.3208H20.7959H13.1751H13.1534L13.1643 41.3396C14.4136 43.4936 15.9753 45.3676 17.8493 46.9616C19.7235 48.5558 21.867 49.7406 24.2796 50.5161ZM37.7058 50.4982L37.6908 50.5256L37.7206 50.5161C40.1332 49.7406 42.2767 48.5558 44.1509 46.9616C46.0249 45.3676 47.5866 43.4936 48.8359 41.3396L48.8468 41.3208H48.8251H41.2042H41.1944L41.1921 41.3305C40.8047 42.9661 40.3205 44.5478 39.7394 46.0758C39.1584 47.6037 38.4805 49.0779 37.7058 50.4982ZM10.9671 36.1697L10.9695 36.1792H10.9792H19.7626H19.7771L19.7749 36.1648C19.6458 35.304 19.549 34.4539 19.4844 33.6147C19.4199 32.7754 19.3876 31.9039 19.3876 31C19.3876 30.0961 19.4199 29.2246 19.4844 28.3853C19.549 27.5461 19.6458 26.696 19.7749 25.8352L19.7771 25.8208H19.7626H10.9792H10.9695L10.9671 25.8303C10.7517 26.6919 10.5902 27.5427 10.4825 28.3828C10.3748 29.2229 10.3209 30.0953 10.3209 31C10.3209 31.9047 10.3748 32.7771 10.4825 33.6172C10.5902 34.4573 10.7517 35.3081 10.9671 36.1697ZM24.9169 36.1685L24.9185 36.1792H24.9292H37.0709H37.0817L37.0833 36.1685C37.2125 35.3071 37.3094 34.4565 37.374 33.6166C37.4386 32.7767 37.4709 31.9045 37.4709 31C37.4709 30.0955 37.4386 29.2233 37.374 28.3834C37.3094 27.5435 37.2125 26.6929 37.0833 25.8315L37.0817 25.8208H37.0709H24.9292H24.9185L24.9169 25.8315C24.7877 26.6929 24.6908 27.5435 24.6262 28.3834C24.5616 29.2233 24.5292 30.0955 24.5292 31C24.5292 31.9045 24.5616 32.7767 24.6262 33.6166C24.6908 34.4565 24.7877 35.3071 24.9169 36.1685ZM42.2252 36.1648L42.2231 36.1792H42.2376H51.0209H51.0307L51.033 36.1697C51.2484 35.3081 51.41 34.4573 51.5177 33.6172C51.6254 32.7771 51.6792 31.9047 51.6792 31C51.6792 30.0953 51.6254 29.2229 51.5177 28.3828C51.41 27.5427 51.2484 26.6919 51.033 25.8303L51.0307 25.8208H51.0209H42.2376H42.2231L42.2252 25.8352C42.3543 26.696 42.4512 27.5461 42.5157 28.3853C42.5803 29.2246 42.6126 30.0961 42.6126 31C42.6126 31.9039 42.5803 32.7754 42.5157 33.6147C42.4512 34.4539 42.3543 35.304 42.2252 36.1648ZM41.1921 20.6696L41.1944 20.6792H41.2042H48.8251H48.8468L48.8359 20.6604C47.5866 18.5064 46.0249 16.6324 44.1509 15.0384C42.2767 13.4442 40.1332 12.2594 37.7206 11.4839L37.6908 11.4744L37.7058 11.5018C38.4805 12.9222 39.1584 14.3963 39.7394 15.9242C40.3205 17.4522 40.8047 19.034 41.1921 20.6696ZM26.0797 20.6634L26.0754 20.6792H26.0917H35.9084H35.9248L35.9205 20.6634C35.4036 18.7682 34.736 16.9807 33.9176 15.3008C33.0992 13.621 32.1301 12.0058 31.0102 10.4552L31.0001 10.4412L30.9899 10.4552C29.8701 12.0058 28.901 13.621 28.0826 15.3008C27.2642 16.9807 26.5965 18.7682 26.0797 20.6634ZM13.1643 20.6604L13.1534 20.6792H13.1751H20.7959H20.8058L20.8081 20.6696C21.1955 19.034 21.6797 17.4522 22.2607 15.9242C22.8418 14.3963 23.5197 12.9222 24.2944 11.5018L24.3094 11.4744L24.2796 11.4839C21.867 12.2594 19.7235 13.4442 17.8493 15.0384C15.9753 16.6324 14.4136 18.5064 13.1643 20.6604ZM31.0001 56.8208C27.4712 56.8208 24.1361 56.143 20.9946 54.7875C17.853 53.4318 15.1095 51.5813 12.7641 49.236C10.4188 46.8906 8.56824 44.1471 7.2126 41.0055C5.85705 37.864 5.17925 34.5289 5.17925 31C5.17925 27.428 5.85705 24.0822 7.21259 20.9623C8.56823 17.8422 10.4187 15.1094 12.7641 12.7641C15.1095 10.4187 17.853 8.56817 20.9946 7.21252C24.1361 5.85697 27.4712 5.17917 31.0001 5.17917C34.5721 5.17917 37.9179 5.85698 41.0378 7.21251C44.1579 8.56815 46.8906 10.4187 49.236 12.7641C51.5814 15.1094 53.4319 17.8422 54.7876 20.9623C56.1431 24.0822 56.8209 27.428 56.8209 31C56.8209 34.5289 56.1431 37.864 54.7876 41.0055C53.4319 44.1471 51.5814 46.8906 49.236 49.236C46.8906 51.5813 44.1579 53.4319 41.0378 54.7875C37.9179 56.143 34.5721 56.8208 31.0001 56.8208Z" fill="url(#paint1_linear_0_20)" stroke="url(#paint2_linear_0_20)" stroke-width="0.025"/>
</g>
<defs>
<linearGradient id="paint0_linear_0_20" x1="31" y1="0" x2="31" y2="62" gradientUnits="userSpaceOnUse">
<stop stop-color="#16FF9D"/>
<stop offset="1" stop-color="#3DF74F"/>
</linearGradient>
<linearGradient id="paint1_linear_0_20" x1="31.0001" y1="5.16667" x2="31.0001" y2="56.8333" gradientUnits="userSpaceOnUse">
<stop stop-color="#16FF9D"/>
<stop offset="1" stop-color="#3DF74F"/>
</linearGradient>
<linearGradient id="paint2_linear_0_20" x1="31.0001" y1="5.16667" x2="31.0001" y2="56.8333" gradientUnits="userSpaceOnUse">
<stop stop-color="#16FF9D"/>
<stop offset="1" stop-color="#3DF74F"/>
</linearGradient>
</defs>
</svg>
